<svg width="25" height="25" viewBox="0 0 25 25" fill="none" xmlns="http://www.w3.org/2000/svg">
<g clip-path="url(#clip0)">
<path d="M17.3366 0.050293H7.11223C3.20399 0.050293 0.0244141 3.22987 0.0244141 7.13811V17.3625C0.0244141 21.2707 3.20399 24.4503 7.11223 24.4503H17.3366C21.2448 24.4503 24.4244 21.2707 24.4244 17.3625V7.13811C24.4244 3.22987 21.2448 0.050293 17.3366 0.050293ZM22.5182 17.3625C22.5182 20.2196 20.1937 22.544 17.3366 22.544H7.11223C4.2551 22.544 1.93066 20.2196 1.93066 17.3625V7.13811C1.93066 4.28098 4.2551 1.95654 7.11223 1.95654H17.3366C20.1937 1.95654 22.5182 4.28098 22.5182 7.13811V17.3625Z" fill="white"/>
<path d="M12.224 5.67383C8.59767 5.67383 5.64746 8.62404 5.64746 12.2504C5.64746 15.8767 8.59767 18.827 12.224 18.827C15.8504 18.827 18.8006 15.8767 18.8006 12.2504C18.8006 8.62404 15.8504 5.67383 12.224 5.67383ZM12.224 16.9207C9.64882 16.9207 7.55371 14.8256 7.55371 12.2504C7.55371 9.67519 9.64882 7.58008 12.224 7.58008C14.7992 7.58008 16.8943 9.67519 16.8943 12.2504C16.8943 14.8256 14.7992 16.9207 12.224 16.9207Z" fill="white"/>
<path d="M18.8965 6.53174C19.4229 6.53174 19.8496 6.10501 19.8496 5.57861C19.8496 5.05222 19.4229 4.62549 18.8965 4.62549C18.3701 4.62549 17.9434 5.05222 17.9434 5.57861C17.9434 6.10501 18.3701 6.53174 18.8965 6.53174Z" fill="white"/>
</g>
<defs>
<clipPath id="clip0">
<rect width="24.4" height="24.4" fill="white" transform="translate(0.0244141 0.050293)"/>
</clipPath>
</defs>
</svg>
