<svg width="25" height="25" viewBox="0 0 25 25" fill="none" xmlns="http://www.w3.org/2000/svg">
<g clip-path="url(#clip0)">
<path d="M24.7449 24.6876V24.6865H24.751V15.7378C24.751 11.3601 23.8085 7.98779 18.6906 7.98779C16.2303 7.98779 14.5792 9.33793 13.9052 10.6179H13.834V8.39649H8.98145V24.6865H14.0343V16.6203C14.0343 14.4965 14.4369 12.4428 17.067 12.4428C19.6585 12.4428 19.6971 14.8666 19.6971 16.7565V24.6876H24.7449Z" fill="white"/>
<path d="M0.75293 8.39746H5.81186V24.6875H0.75293V8.39746Z" fill="white"/>
<path d="M3.28062 0.287598C1.6631 0.287598 0.350586 1.60011 0.350586 3.21763C0.350586 4.83515 1.6631 6.17511 3.28062 6.17511C4.89814 6.17511 6.21065 4.83515 6.21065 3.21763C6.20964 1.60011 4.89712 0.287598 3.28062 0.287598V0.287598Z" fill="white"/>
</g>
<defs>
<clipPath id="clip0">
<rect width="24.4" height="24.4" fill="white" transform="translate(0.350586 0.287598)"/>
</clipPath>
</defs>
</svg>
