<svg width="166" height="26" viewBox="0 0 166 26" fill="none" xmlns="http://www.w3.org/2000/svg">
<path d="M63.462 0H37.0275C36.4908 0 35.9761 0.205892 35.5966 0.572382C35.2171 0.938872 35.0039 1.43594 35.0039 1.95423V25.9504H39.1622V4.01589H61.3272V25.9504H65.4856V1.95423C65.4856 1.43594 65.2724 0.938872 64.8929 0.572382C64.5134 0.205892 63.9987 0 63.462 0V0Z" fill="#E5E5E5"/>
<path d="M100.061 0H69.4209V4.01589H82.0286V25.9504H86.1869V4.01589H100.061V0Z" fill="#E5E5E5"/>
<path d="M165.991 21.9345H143.039V0H138.881V24.0375C138.881 25.0869 139.582 26 141.063 26L165.991 25.9504V21.9345Z" fill="#E5E5E5"/>
<path d="M1.48148e-06 0V4.01589H26.8838V21.9345H4.15834V17.9228C4.15834 17.1437 4.47881 16.3965 5.04925 15.8456C5.61969 15.2947 6.39337 14.9852 7.20009 14.9852H20.8088V10.9652H6.17762C5.3658 10.9657 4.56204 11.1207 3.81224 11.4212C3.06243 11.7218 2.38126 12.162 1.80761 12.7167C1.23397 13.2715 0.779083 13.9299 0.468933 14.6545C0.158783 15.379 -0.000560525 16.1554 1.48148e-06 16.9395V22.5832C1.48148e-06 23.4762 0.367347 24.3327 1.02123 24.9642C1.6751 25.5957 2.56195 25.9504 3.48668 25.9504H29.0228C29.5595 25.9504 30.0742 25.7445 30.4537 25.378C30.8332 25.0115 31.0464 24.5145 31.0464 23.9962V1.95423C31.0464 1.43594 30.8332 0.938872 30.4537 0.572382C30.0742 0.205892 29.5595 0 29.0228 0L1.48148e-06 0Z" fill="#E5E5E5"/>
<path d="M104.049 0V4.01589H130.937V21.9345H108.211V17.9228C108.211 17.5372 108.289 17.1553 108.441 16.7989C108.594 16.4426 108.817 16.1187 109.1 15.8459C109.382 15.573 109.717 15.3566 110.086 15.2089C110.454 15.0612 110.85 14.9852 111.249 14.9852H124.858V10.9652H110.231C109.419 10.9652 108.614 11.1198 107.864 11.42C107.114 11.7203 106.432 12.1605 105.858 12.7153C105.284 13.2701 104.829 13.9287 104.518 14.6535C104.208 15.3783 104.048 16.1551 104.049 16.9395V22.5832C104.049 23.0257 104.139 23.4639 104.315 23.8727C104.49 24.2815 104.747 24.6529 105.072 24.9656C105.396 25.2784 105.781 25.5263 106.204 25.6953C106.628 25.8643 107.082 25.951 107.54 25.9504H133.072C133.608 25.9504 134.123 25.7445 134.503 25.378C134.882 25.0115 135.095 24.5145 135.095 23.9962V1.95423C135.095 1.43594 134.882 0.938872 134.503 0.572382C134.123 0.205892 133.608 0 133.072 0L104.049 0Z" fill="#E5E5E5"/>
</svg>
