<svg width="127" height="54" viewBox="0 0 127 54" fill="none" xmlns="http://www.w3.org/2000/svg">
<path d="M17.0175 42.2257L15.0681 41.9009C13.8902 41.6572 13.3217 41.2106 13.3217 40.4798C13.3217 39.9114 13.5653 39.5054 14.0933 39.1806C14.5401 38.8963 15.1087 38.7745 15.7585 38.7745C17.6674 38.7745 18.6015 39.5054 18.6015 41.0076V41.2512H19.8199V41.0076C19.8199 38.7745 18.439 37.6377 15.7179 37.6377C14.7838 37.6377 13.9715 37.8813 13.3217 38.2873C12.55 38.8151 12.1845 39.546 12.1845 40.4392C12.1845 41.8603 13.1592 42.7535 15.0681 43.0377C16.6114 43.2813 16.8957 43.3625 16.9363 43.3625C18.1547 43.6467 18.7639 44.1339 18.7639 44.8648C18.7639 45.4738 18.4796 45.8798 17.911 46.164C17.4643 46.4076 16.8551 46.5294 16.124 46.5294C14.0527 46.5294 13.0374 45.6362 13.0374 43.8903V43.6873H11.7783V43.9309C11.7783 46.4482 13.1998 47.7069 16.0022 47.7069C17.0175 47.7069 17.911 47.5039 18.5609 47.1385C19.4544 46.6512 19.8605 45.8798 19.8605 44.9054C19.8199 43.4843 18.8858 42.5911 17.0175 42.2257ZM68.7598 42.2257L66.8103 41.9009C65.6325 41.6572 65.0639 41.2106 65.0639 40.4798C65.0639 39.9114 65.3076 39.5054 65.8356 39.1806C66.2823 38.8963 66.8509 38.7745 67.5007 38.7745C69.4096 38.7745 70.3437 39.5054 70.3437 41.0076V41.2512H71.5215V41.0076C71.5215 38.7745 70.1406 37.6377 67.4195 37.6377C66.4854 37.6377 65.6731 37.8813 65.0233 38.2873C64.2516 38.8151 63.8861 39.546 63.8861 40.4392C63.8861 41.8603 64.8608 42.7535 66.7697 43.0377C68.313 43.2813 68.5973 43.3625 68.6379 43.3625C69.8563 43.6467 70.4656 44.1339 70.4656 44.8648C70.4656 45.4738 70.1813 45.8798 69.6127 46.164C69.1659 46.4076 68.5567 46.5294 67.8256 46.5294C65.7543 46.5294 64.739 45.6362 64.739 43.8903V43.6873H63.5612V43.9309C63.5612 46.4482 64.9827 47.7069 67.785 47.7069C68.8004 47.7069 69.6939 47.5039 70.3437 47.1385C71.2372 46.6512 71.6434 45.8798 71.6434 44.9054C71.5621 43.4843 70.628 42.5911 68.7598 42.2257ZM25.8308 37.9219C24.9779 37.9219 24.2468 38.1249 23.5564 38.4903C22.8659 38.8557 22.338 39.4242 22.013 40.1144V38.1655H21.3632V50.346H22.013V45.2708C22.7441 46.7324 24.0031 47.4633 25.8308 47.4633C27.2523 47.4633 28.3894 47.0166 29.2017 46.1234C29.9734 45.2708 30.3389 44.1339 30.3389 42.6317C30.3389 41.2106 29.9328 40.0738 29.1611 39.1806C28.3894 38.3685 27.2929 37.9219 25.8308 37.9219ZM28.755 45.6362C28.1052 46.4482 27.1304 46.8542 25.912 46.8542C24.6123 46.8542 23.6376 46.4888 22.9472 45.6768C22.2973 44.946 22.013 43.9309 22.013 42.6317C22.013 41.4136 22.3786 40.3986 23.069 39.6678C23.7595 38.8963 24.7342 38.5309 25.9526 38.5309C27.1304 38.5309 28.0645 38.9369 28.755 39.749C29.4048 40.5204 29.7297 41.4948 29.7297 42.7129C29.6891 43.8903 29.3642 44.9054 28.755 45.6362ZM39.6801 40.1144C38.9491 38.6527 37.6494 37.9219 35.8218 37.9219C34.4003 37.9219 33.2631 38.3685 32.4508 39.3024C31.6792 40.1956 31.3137 41.2918 31.3137 42.7129C31.3137 44.0933 31.6792 45.2302 32.4508 46.0828C33.2631 47.0166 34.3597 47.4633 35.7406 47.4633C37.5682 47.4633 38.8679 46.7324 39.6801 45.2302V47.2603H40.33V37.9625H39.6801V40.1144ZM38.6242 45.5956C37.8931 46.4076 36.9184 46.8136 35.7406 46.8136C34.5222 46.8136 33.588 46.4076 32.8976 45.5956C32.2478 44.8648 31.9635 43.8903 31.9635 42.7129C31.9635 41.5354 32.2884 40.561 32.9382 39.7896C33.6287 38.9369 34.5628 38.5309 35.7406 38.5309C36.9996 38.5309 37.9744 38.8963 38.6648 39.6678C39.3552 40.3986 39.6801 41.4542 39.6801 42.7129C39.6801 43.8497 39.3146 44.8242 38.6242 45.5956ZM49.7524 38.8151V37.8813H42.117V38.9775C42.117 38.9775 47.3156 38.9775 48.1685 38.9775C47.5593 39.6678 41.589 46.5294 41.589 46.5294V47.4633H50.1179V46.367C50.1179 46.367 44.0665 46.367 43.1729 46.367C43.7822 45.6768 49.7524 38.8151 49.7524 38.8151ZM51.1739 47.2197H51.8237V38.0843H51.1739V47.2197ZM51.4988 34.4302C51.377 34.4302 51.2551 34.5114 51.1739 34.7144V35.973C51.2145 36.1354 51.3364 36.2572 51.4988 36.2572C51.6207 36.2572 51.7425 36.176 51.8643 36.0136V34.7144C51.7019 34.5114 51.58 34.4302 51.4988 34.4302ZM57.8752 37.9219C56.4537 37.9219 55.3165 38.3685 54.4636 39.2212C53.6107 40.1144 53.2046 41.2512 53.2046 42.7129C53.2046 44.1339 53.6107 45.2708 54.423 46.1234C55.2759 47.0166 56.4131 47.4633 57.8752 47.4633C59.2967 47.4633 60.4339 47.0166 61.3274 46.164C62.1803 45.2708 62.5864 44.1339 62.5864 42.7129C62.5864 41.2918 62.1803 40.1144 61.3274 39.2212C60.4339 38.3685 59.2967 37.9219 57.8752 37.9219ZM60.7994 45.6768C60.0684 46.4482 59.0936 46.8136 57.8752 46.8136C56.6568 46.8136 55.6821 46.4482 54.951 45.6768C54.22 44.9054 53.8544 43.9309 53.8544 42.6723C53.8544 41.4136 54.22 40.4392 54.9104 39.6678C55.6008 38.8963 56.6162 38.5309 57.8346 38.5309C59.0936 38.5309 60.0684 38.8963 60.7994 39.6678C61.4899 40.3986 61.8554 41.4136 61.8554 42.7129C61.8554 43.9309 61.4899 44.946 60.7994 45.6768Z" fill="white"/>
<path d="M77.4111 2.92334V46.7324L119.081 41.576V7.2271L77.4111 2.92334ZM112.583 35.8918L86.1025 38.0842V11.5715L112.623 13.1955L112.583 35.8918Z" fill="white"/>
<path d="M111.933 13.8449L97.5556 12.9517L87.9707 13.9261V35.2013L98.1242 36.4599L111.974 35.3231L111.933 13.8449ZM108.359 33.0088L91.9915 31.669V17.6614L108.4 16.6464V33.0088H108.359Z" fill="white"/>
<path d="M92.6406 31.06L101.17 31.7503L106.734 31.06V18.23L101.535 17.7021L92.6406 18.2706V31.06ZM94.3464 19.854L104.256 20.4631V28.9488L94.3464 29.7608V19.854Z" fill="white"/>
</svg>
