<svg width="24" height="24" viewBox="0 0 24 24" fill="none" xmlns="http://www.w3.org/2000/svg">
<g clip-path="url(#clip0)">
<path d="M9.14984 24C7.40281 24 5.75515 23.4427 4.38499 22.388C4.12905 22.1911 3.88296 21.9759 3.65327 21.7491C2.0539 20.1684 1.24905 18.0633 1.38734 15.8212C1.49187 14.1267 2.17437 12.4931 3.31015 11.2214C4.81437 9.53719 6.88812 8.60953 9.15031 8.60953C9.5389 8.60953 9.93124 8.63859 10.3175 8.69578L10.9175 8.78484V14.1094L9.99359 13.8042C9.72452 13.7152 9.44468 13.6702 9.16156 13.6702C8.44624 13.6702 7.7764 13.9505 7.2753 14.4591C6.77656 14.9653 6.50796 15.6347 6.51827 16.3448C6.53187 17.2603 7.01421 18.09 7.80827 18.5653C8.1739 18.7838 8.59015 18.9117 9.01296 18.9352C9.34671 18.9534 9.67624 18.9098 9.99312 18.8053C11.0764 18.4477 11.8044 17.4427 11.8044 16.305L11.8091 10.7831V0H16.8978L16.9039 0.696562C16.9067 1.01203 16.9391 1.3275 17 1.63313C17.2391 2.835 17.9131 3.90609 18.898 4.64859C19.7722 5.30813 20.8156 5.65641 21.9144 5.65641C21.9402 5.65641 21.9402 5.65641 22.175 5.67281L22.8289 5.71875V10.0312V10.7344L22.5945 10.7339H22.1272C22.1234 10.7339 22.1197 10.7339 22.1155 10.7339H21.8909C21.89 10.7339 21.8886 10.7339 21.8872 10.7339C20.532 10.7339 19.2622 10.4756 18.0036 9.94453C17.6286 9.78609 17.2634 9.60516 16.9109 9.40313L16.9269 16.3317C16.9184 18.3811 16.1084 20.3034 14.6464 21.7486C13.46 22.9209 11.9628 23.67 10.3166 23.9137C9.93265 23.9709 9.54031 24 9.14984 24ZM9.14984 10.0158C7.29406 10.0158 5.59249 10.7766 4.35874 12.158C3.43249 13.1953 2.87562 14.527 2.7903 15.9075C2.6778 17.738 3.33499 19.4573 4.6414 20.7483C4.8303 20.9348 5.03234 21.1116 5.24234 21.2733C6.36452 22.1372 7.71593 22.5938 9.14984 22.5938C9.4714 22.5938 9.79437 22.5698 10.1108 22.523C11.4594 22.3233 12.6861 21.7097 13.6583 20.7488C14.8526 19.5684 15.5141 17.9995 15.5211 16.3308L15.4991 6.65625L16.6348 7.53234C17.2212 7.98469 17.8662 8.36063 18.5511 8.64984C19.4872 9.045 20.4308 9.26437 21.4222 9.31641V7.04531C20.1969 6.95344 19.0395 6.51797 18.0509 5.77219C16.79 4.82156 15.927 3.44906 15.6205 1.90828C15.5877 1.74281 15.5609 1.57547 15.5412 1.40672H13.2148V10.7836L13.2101 16.3055C13.2101 18.0506 12.0945 19.5919 10.4337 20.1403C9.94952 20.3002 9.44562 20.3667 8.93562 20.3391C8.28593 20.3034 7.64656 20.107 7.08593 19.7719C5.87046 19.0448 5.13218 17.7712 5.11155 16.3655C5.09562 15.2761 5.50765 14.2486 6.27265 13.4719C7.03999 12.6928 8.06562 12.2639 9.16062 12.2639C9.27781 12.2639 9.39406 12.2691 9.51031 12.2789V10.0256C9.39031 10.0191 9.26984 10.0158 9.14984 10.0158Z" fill="white"/>
</g>
<defs>
<clipPath id="clip0">
<rect width="24" height="24" fill="white"/>
</clipPath>
</defs>
</svg>
